#!OML:ASF F:\VICON\USERDATA\INSTALL\rory3\rory3.ASF
:FULLY-SPECIFIED
:DEGREES
274
root -1.0997 16.1226 -1.29824 1.21761 -0.769634 -2.61608
lowerback 11.7801 1.6343 -3.18421
upperback -4.63049 1.93532 2.37323
thorax -11.9047 1.27936 3.97456
lowerneck -10.5901 -6.24493 -3.48416
upperneck 19.6347 -8.64781 3.08057
head 8.1102 -4.07621 0.706614
rclavicle -7.70291e-015 7.35503e-015
rhumerus -33.5552 5.18394 -85.0033
rradius 27.4387
rwrist 7.01639
rhand -11.5344 20.8455
rfingers 7.12502
rthumb 14.5057 -8.62739
lclavicle -7.70291e-015 7.35503e-015
lhumerus -41.8762 3.70959 88.2804
lradius 21.4707
lwrist -0.310692
lhand -4.45302 20.3531
lfingers 7.12502
lthumb 21.3189 49.2004
rfemur 26.2377 9.01959 30.6359
rtibia 1.90833e-014
rfoot -9.52659 -5.22105
rtoes 10.3241
lfemur -34.1921 -20.0807 -12.2638
ltibia 29.3708
lfoot -11.1508 12.9536
ltoes 31.6856
275
root -1.05999 16.1124 -1.12012 1.16408 -0.900269 -2.2171
lowerback 11.4626 1.63145 -3.54078
upperback -4.61559 1.87077 2.28243
thorax -11.7013 1.26733 4.09497
lowerneck -10.7064 -6.20977 -3.38216
upperneck 19.7429 -8.59411 2.95493
head 8.15476 -4.05253 0.649658
rclavicle -1.963e-014 -1.92821e-014
rhumerus -33.7418 4.75376 -84.8387
rradius 27.2971
rwrist 6.64419
rhand -10.9331 20.8532
rfingers 7.12502
rthumb 15.0849 -8.57711
lclavicle -1.963e-014 -1.92821e-014
lhumerus -41.8043 3.77794 88.2108
lradius 20.9692
lwrist -0.470547
lhand -4.5597 20.9002
lfingers 7.12502
lthumb 21.2164 49.7591
rfemur 23.6973 8.81839 30.0038
rtibia 5.70518
rfoot -10.9285 -4.52617
rtoes 9.24261
lfemur -33.8476 -20.0431 -13.03
ltibia 29.8955
lfoot -10.6121 13.0216
ltoes 33.2362
276
root -1.02465 16.098 -0.949765 1.08996 -0.924725 -1.83889
lowerback 11.3951 1.61743 -3.85699
upperback -4.64246 1.79176 2.18311
thorax -11.6923 1.24925 4.1837
lowerneck -11.0635 -6.15896 -3.46236
upperneck 20.0342 -8.53564 3.06232
head 8.32395 -4.01098 0.688199
rclavicle 3.16813e-015 3.57812e-015
rhumerus -34.203 4.43444 -84.7309
rradius 27.3115
rwrist 6.40435
rhand -10.745 20.904
rfingers 7.12502
rthumb 15.2661 -8.51262
lclavicle 3.16813e-015 3.57812e-015
lhumerus -41.7597 3.77165 88.1653
lradius 20.4189
lwrist -0.824857
lhand -4.75575 20.4444
lfingers 7.12502
lthumb 21.0281 49.3243
rfemur 21.4721 8.50738 29.3846
rtibia 10.8472
rfoot -11.9506 -3.84321
rtoes 8.0716
lfemur -33.3813 -19.3449 -14.0171
ltibia 30.4123
lfoot -9.43784 12.9144
ltoes 31.8968
277
root -0.991205 16.0656 -0.785877 1.03506 -0.996767 -1.34161
lowerback 11.429 1.66155 -4.30284
upperback -4.74067 1.75907 2.01443
thorax -11.8334 1.26474 4.25876
lowerneck -11.1076 -6.16202 -3.51026
upperneck 20.2337 -8.56531 3.17839
head 8.40799 -4.01404 0.726625
rclavicle 2.99419e-015 7.95139e-016
rhumerus -35.1104 3.99673 -84.5807
rradius 27.2301
rwrist 7.24062
rhand -11.5422 21.5473
rfingers 7.12502
rthumb 14.4981 -7.92616
lclavicle 2.99419e-015 7.95139e-016
lhumerus -41.8418 3.74582 88.0229
lradius 20.0314
lwrist -1.25403
lhand -4.73236 19.2413
lfingers 7.12502
lthumb 21.0505 48.1188
rfemur 19.75 7.84422 28.4549
rtibia 14.9654
rfoot -12.0713 -2.80882
rtoes 7.70381
lfemur -32.961 -18.4812 -15.109
ltibia 30.9778
lfoot -9.06018 12.4467
ltoes 32.056
278
root -0.953363 16.0532 -0.617068 0.884435 -1.13258 -0.781489
lowerback 11.5037 1.70842 -4.76961
upperback -4.81507 1.72164 1.82805
thorax -11.9724 1.27871 4.32634
lowerneck -10.8448 -6.17376 -3.40324
upperneck 20.1695 -8.58529 3.07498
head 8.32935 -4.03131 0.682776
rclavicle 3.13086e-015 -2.38542e-015
rhumerus -35.8814 3.51071 -84.4245
rradius 27.0049
rwrist 7.92646
rhand -12.3161 22.192
rfingers 7.12502
rthumb 13.7523 -7.33352
lclavicle 3.13086e-015 -2.38542e-015
lhumerus -41.9513 3.97944 87.7029
lradius 19.835
lwrist -1.6266
lhand -4.47938 19.1621
lfingers 7.12502
lthumb 21.2936 48.0123
rfemur 18.3518 7.11084 27.339
rtibia 18.6057
rfoot -11.8213 -1.65696
rtoes 8.16117
lfemur -32.43 -17.809 -16.2184
ltibia 31.5588
lfoot -9.62262 11.6859
ltoes 34.8762
279
root -0.913046 16.0369 -0.452273 0.729048 -1.08632 -0.257325
lowerback 11.6272 1.67397 -5.11789
upperback -4.83683 1.59048 1.6419
thorax -12.064 1.23689 4.34683
lowerneck -10.7936 -6.16826 -3.3824
upperneck 20.1541 -8.5834 3.07609
head 8.31389 -4.03011 0.681901
rclavicle -2.04127e-014 -6.75868e-015
rhumerus -36.1815 3.05314 -84.374
rradius 26.6118
rwrist 7.2596
rhand -12.4108 22.0595
rfingers 7.12502
rthumb 13.6611 -7.47221
lclavicle -2.04127e-014 -6.75868e-015
lhumerus -41.9058 4.37778 87.2983
lradius 19.393
lwrist -2.20386
lhand -4.4169 18.9883
lfingers 7.12502
lthumb 21.3536 47.8317
rfemur 16.9982 6.14184 26.1912
rtibia 22.1018
rfoot -11.2761 -0.658064
rtoes 9.03018
lfemur -31.9834 -16.8883 -17.3795
ltibia 32.1128
lfoot -9.22057 10.891
ltoes 36.0523
